<svg width="130" height="166" viewBox="0 0 130 166" fill="none" xmlns="http://www.w3.org/2000/svg">
<path fill-rule="evenodd" clip-rule="evenodd" d="M64.0799 14.5933V1.26944e-06L49.4318 0V14.5933L14.6609 14.5933L14.6609 29.1865L109.873 29.1865V14.5933H64.0799ZM0.000244141 14.5933H14.6483V151.405H0.000244141V14.5933ZM109.858 43.7803H95.2253V29.187L109.873 29.187V29.1873L124.506 29.1873L124.506 89.3845H109.858V72.9671H95.2253V58.3738H109.858V43.7803ZM115.352 122.221L115.352 103.979H130V122.221V136.814H108.033V151.406H14.6521L14.6521 136.813H95.2111V122.221H115.352ZM49.4318 166H64.0799V151.407H49.4318V166ZM71.4138 72.9676H49.4417V43.781H71.4138V72.9676ZM49.4318 122.221H64.0799V102.153H78.7279V87.5601H64.0799V87.5615L49.4318 87.5615L49.4318 122.221Z" fill="white"/>
</svg>
