<svg width="156" height="48" viewBox="0 0 156 48" fill="none" xmlns="http://www.w3.org/2000/svg">
<path d="M9.96875 4.74031C13.7513 1.67694 18.4929 0.0253906 23.3676 0.0253906C28.2424 0.0253906 32.9573 1.73022 36.7399 4.79358C36.7399 4.92677 36.6333 4.98005 36.5534 5.05996C34.9818 6.65824 33.3835 8.22988 31.8119 9.82816C31.7852 9.88143 31.732 9.93471 31.6787 9.96135C31.6254 9.98799 31.5721 10.0146 31.4922 10.0146C31.4389 10.0146 31.359 10.0146 31.3058 9.98798C31.2525 9.96135 31.1992 9.93471 31.1459 9.88143C28.8284 8.41635 26.138 7.64385 23.3943 7.61721C20.6506 7.59057 17.9601 8.33643 15.616 9.74824C15.4828 9.82816 15.3496 9.90807 15.2164 10.0146L9.96875 4.74031Z" fill="white"/>
<path d="M36.6875 15.3149C38.419 13.5568 40.1504 11.772 41.8819 9.9873C48.7545 18.4848 47.5291 30.2854 41.8819 37.0515C40.1504 35.2934 38.4456 33.5353 36.6875 31.7772C39.9107 26.343 39.964 20.829 36.6875 15.3149Z" fill="white"/>
<path d="M36.663 42.4869C32.8804 45.5503 28.1389 47.2285 23.2641 47.2285C18.3894 47.2285 13.6745 45.5503 9.86523 42.4869C11.5967 40.7288 13.3282 38.9974 15.0596 37.2393C20.5204 40.6489 25.9812 40.5956 31.4153 37.2659C33.1734 38.9707 34.9315 40.7288 36.663 42.4869Z" fill="white"/>
<path d="M9.8102 15.2894C6.56037 20.8035 6.56037 26.3175 9.8102 31.8316L4.6158 37.0526C-1.37774 29.8071 -1.69739 17.8999 4.6158 10.0684C6.34727 11.8265 8.07874 13.5579 9.8102 15.2894Z" fill="white"/>
<path d="M156.001 35.0284H153.524C153.364 34.1227 153.497 33.217 153.337 32.258C153.124 32.4445 152.964 32.6576 152.805 32.8973C151.659 34.2825 150.034 35.1349 148.276 35.2947C146.864 35.4812 145.426 35.2948 144.121 34.7886C142.842 34.3091 141.697 33.51 140.844 32.4445C139.992 31.379 139.432 30.1003 139.273 28.7418C138.953 27.0903 139.059 25.3854 139.539 23.7605C139.939 22.3753 140.711 21.1234 141.803 20.1644C142.895 19.2054 144.254 18.6194 145.692 18.4329C147.37 18.1133 149.102 18.3264 150.62 19.0456C151.473 19.4452 152.245 20.0578 152.831 20.7771C153.018 21.0168 153.178 21.2565 153.311 21.5496V11.7734H156.001V35.0284ZM147.477 32.7375C148.916 32.7641 150.301 32.258 151.366 31.2724C152.432 30.3135 153.071 28.9549 153.178 27.5165C153.337 26.371 153.178 25.199 152.671 24.1601C152.165 23.1212 151.366 22.2422 150.381 21.6561C149.635 21.2299 148.809 20.9902 147.957 20.9103C147.104 20.8303 146.252 20.9635 145.453 21.2566C144.653 21.5229 143.934 21.9491 143.348 22.5618C142.762 23.1745 142.336 23.8937 142.123 24.7195C141.723 26.0514 141.697 27.4898 142.096 28.8484C142.416 29.9938 143.135 31.0327 144.121 31.7253C145.08 32.4445 146.278 32.7908 147.477 32.7375Z" fill="white"/>
<path d="M74.6998 27.9425H60.9812C61.0611 28.9281 61.4074 29.8338 61.9935 30.6329C62.5795 31.4054 63.3786 32.0181 64.2843 32.3378C65.19 32.7107 66.1756 32.8705 67.1612 32.8172C68.573 32.764 69.9316 32.3111 71.1036 31.5386C71.4233 31.3255 71.7163 31.0591 71.9561 30.7395C72.5687 31.2989 73.1548 31.8316 73.7674 32.4177C73.3945 32.8972 72.9683 33.2967 72.4888 33.6164C70.8639 34.7618 68.9193 35.3479 66.9215 35.3745C65.7761 35.4278 64.604 35.2413 63.5118 34.8417C62.1267 34.3623 60.9013 33.5098 59.969 32.3644C59.0367 31.219 58.4773 29.8338 58.3174 28.3687C57.9978 26.6372 58.1842 24.8259 58.8768 23.2009C59.4096 21.869 60.2886 20.7236 61.4341 19.8712C62.5795 19.0188 63.938 18.486 65.3498 18.3262C66.7084 18.1397 68.0936 18.2463 69.3988 18.6192C70.7307 18.9655 71.9294 19.6847 72.8351 20.697C73.7674 21.7092 74.3535 22.9878 74.5666 24.3197C74.8596 25.5451 74.8862 26.7438 74.6998 27.9425ZM72.1159 25.5717C72.1159 25.3853 72.1425 25.2521 72.1159 25.0922C72.036 24.2132 71.743 23.3874 71.2102 22.6948C70.6774 22.0022 69.9582 21.4695 69.1591 21.1765C68.2534 20.8568 67.3211 20.7236 66.3621 20.7769C65.5097 20.7769 64.6573 20.99 63.9114 21.3896C63.1389 21.7891 62.4996 22.3485 61.9935 23.0411C61.4607 23.7603 61.141 24.6128 61.0345 25.5185C64.7105 25.5717 68.3866 25.5717 72.1159 25.5717Z" fill="white"/>
<path d="M107.862 35.3744C106.743 35.401 105.625 35.2145 104.559 34.7883C103.52 34.3621 102.561 33.7495 101.762 32.9503C100.457 31.6184 99.6576 29.8603 99.4978 27.9957C99.258 26.1843 99.5777 24.3729 100.377 22.748C100.963 21.5493 101.842 20.5104 102.934 19.7379C104.026 18.9654 105.305 18.4859 106.637 18.3527C108.182 18.113 109.78 18.2994 111.218 18.8855C112.55 19.3916 113.722 20.2707 114.575 21.3895C115.454 22.5082 115.987 23.8668 116.147 25.2786C116.44 26.8236 116.306 28.4219 115.8 29.887C115.347 31.2721 114.522 32.5241 113.403 33.4564C112.284 34.3888 110.925 35.0014 109.487 35.2145C108.954 35.3477 108.395 35.3744 107.862 35.3744ZM113.589 26.8769C113.616 26.131 113.483 25.3851 113.243 24.6659C112.923 23.7602 112.417 22.9611 111.698 22.2951C110.979 21.6292 110.153 21.1763 109.221 20.9632C108.288 20.7235 107.329 20.7235 106.397 20.9632C105.465 21.203 104.639 21.6825 103.92 22.3218C103.041 23.2541 102.455 24.3995 102.241 25.6515C102.002 26.9035 102.135 28.1821 102.614 29.3808C104.08 32.977 108.395 33.563 111.005 31.8582C111.831 31.3254 112.497 30.5795 112.95 29.7005C113.403 28.8214 113.616 27.8625 113.589 26.8769Z" fill="white"/>
<path d="M135.354 35.0546H132.744C132.664 34.8948 132.664 34.7084 132.69 34.5219V25.9445C132.69 25.3052 132.584 24.6392 132.397 24.0265C132.184 23.3073 131.785 22.6414 131.225 22.1352C130.666 21.6291 129.973 21.2828 129.228 21.123C128.348 20.8566 127.443 20.8566 126.564 21.0964C125.685 21.3361 124.886 21.8156 124.273 22.4815C123.341 23.4405 122.834 24.7191 122.861 26.051C122.834 28.8746 122.861 31.6716 122.861 34.4953C122.888 34.6817 122.861 34.8682 122.834 35.0546H120.197V18.6457H122.675C122.728 19.4714 122.755 20.2706 122.808 21.0431C122.941 21.0697 122.968 20.9632 123.021 20.9099C123.767 19.9776 124.726 19.2583 125.818 18.8321C126.91 18.4059 128.109 18.2727 129.281 18.4592C130.186 18.5391 131.066 18.8055 131.865 19.2317C132.664 19.6579 133.356 20.2706 133.916 20.9898C134.795 22.1619 135.301 23.5471 135.381 24.9855C135.408 25.4384 135.434 25.8646 135.434 26.2908V34.4953C135.434 34.6817 135.408 34.8682 135.354 35.0546Z" fill="white"/>
<path d="M86.4759 18.6737H89.0065C89.0597 19.3929 89.1397 20.1388 89.2196 20.9379C89.699 20.1121 90.4183 19.4462 91.2441 18.9933C92.0965 18.5405 93.0288 18.3007 93.9878 18.354C95.4262 18.3007 96.8114 18.7269 97.9568 19.5794C97.5572 20.3519 97.1577 21.1244 96.7581 21.8702C96.5716 21.8702 96.3852 21.7903 96.252 21.6571C95.2131 21.0711 93.9611 20.8846 92.789 21.1776C91.617 21.444 90.6047 22.1632 89.9122 23.1488C89.3794 23.9746 89.113 24.9336 89.1396 25.9192V34.4966C89.1663 34.6831 89.1397 34.8695 89.0864 35.056H86.4492V18.6737H86.4759Z" fill="white"/>
<path d="M81.3591 35.0542H78.6953V11.8525H81.3591V35.0542Z" fill="white"/>
<path d="M45.7968 42.4874C45.7968 43.2066 45.557 43.9259 45.1575 44.5385C44.7579 45.1512 44.1719 45.604 43.4793 45.8704C42.8133 46.1368 42.0675 46.2167 41.3482 46.0569C40.629 45.8971 39.9897 45.5508 39.4836 45.018C38.9775 44.4852 38.6312 43.8459 38.498 43.1267C38.3648 42.4075 38.4447 41.6616 38.7377 40.9957C39.0307 40.3297 39.5102 39.7437 40.0963 39.3441C40.7089 38.9446 41.4282 38.7314 42.1474 38.7314C42.6269 38.7314 43.1063 38.838 43.5592 39.0245C44.012 39.2109 44.4116 39.4773 44.7579 39.8502C45.1042 40.1965 45.3706 40.5961 45.557 41.049C45.7169 41.5284 45.8234 42.0079 45.7968 42.4874Z" fill="white"/>
<path d="M4.58862 46.1887C3.84276 46.2154 3.12354 46.0023 2.51086 45.6027C1.89819 45.2031 1.39207 44.6171 1.09905 43.9512C0.806034 43.2852 0.726117 42.5127 0.859307 41.7935C0.992497 41.0743 1.33879 40.4083 1.87155 39.8756C2.40431 39.3428 3.04362 38.9965 3.78948 38.8367C4.50871 38.7035 5.25457 38.7568 5.94716 39.0498C6.63975 39.3428 7.19914 39.8223 7.62535 40.4349C8.02492 41.0476 8.23802 41.7668 8.23802 42.5127C8.23802 42.9922 8.15811 43.4717 7.97164 43.9245C7.78518 44.3774 7.5188 44.7769 7.19914 45.1232C6.85285 45.4695 6.45328 45.7359 6.02707 45.9224C5.54759 46.0822 5.0681 46.1621 4.58862 46.1887Z" fill="white"/>
<path d="M45.7954 4.55353C45.8221 5.03302 45.7422 5.5125 45.5557 5.99198C45.3959 6.44483 45.1295 6.87103 44.7832 7.21733C44.4369 7.56362 44.0373 7.85664 43.5845 8.04311C43.1316 8.22957 42.6522 8.33612 42.1727 8.33612C41.6932 8.33612 41.2137 8.25621 40.7609 8.04311C40.308 7.85664 39.9085 7.59026 39.5622 7.24397C39.2159 6.89767 38.9495 6.47146 38.7897 6.01862C38.6032 5.56577 38.5233 5.08629 38.5499 4.60681C38.5233 4.12732 38.6032 3.64784 38.7897 3.16836C38.9495 2.71551 39.2159 2.28931 39.5622 1.94301C39.9085 1.59672 40.308 1.3037 40.7609 1.11724C41.2137 0.930772 41.6932 0.824219 42.1727 0.824219C42.6522 0.824219 43.1316 0.904134 43.5845 1.11724C44.0373 1.3037 44.4369 1.57008 44.7832 1.91638C45.1295 2.26267 45.3959 2.68887 45.5557 3.14172C45.7422 3.56793 45.8221 4.04741 45.7954 4.55353Z" fill="white"/>
<path d="M8.21164 4.52814C8.21164 5.24737 7.99854 5.96659 7.57233 6.55263C7.17276 7.1653 6.58673 7.61815 5.92078 7.88453C5.25483 8.15091 4.50897 8.23082 3.78974 8.09763C3.07052 7.96444 2.4312 7.59151 1.92508 7.08539C1.41896 6.57927 1.07267 5.91332 0.912844 5.19409C0.779655 4.47487 0.832927 3.75564 1.12594 3.06305C1.41896 2.37047 1.87181 1.81107 2.48448 1.4115C3.09716 1.01193 3.78974 0.798828 4.50897 0.798828C4.98845 0.798828 5.46793 0.878742 5.92078 1.06521C6.37362 1.25167 6.77319 1.51805 7.11949 1.86435C7.46578 2.21064 7.73216 2.61021 7.91862 3.06305C8.13173 3.56918 8.21164 4.04866 8.21164 4.52814Z" fill="white"/>
<path d="M19.3757 18.6986C19.3757 18.9383 19.2691 19.178 19.0827 19.3645C18.8962 19.5243 18.6564 19.6309 18.4167 19.6309C18.177 19.6309 17.9372 19.5243 17.7508 19.3645C17.5643 19.178 17.4844 18.9383 17.4844 18.6986C17.511 18.4588 17.6176 18.2191 17.7774 18.0593C17.9639 17.8994 18.2036 17.7929 18.4433 17.8195C18.6831 17.8195 18.9228 17.8994 19.1093 18.0859C19.2691 18.2191 19.3757 18.4588 19.3757 18.6986Z" fill="white"/>
<path d="M11.1431 10.3604C11.2763 10.3604 11.3828 10.387 11.4894 10.4136C11.5959 10.4669 11.7025 10.5202 11.7824 10.6001C11.8623 10.68 11.9422 10.7866 11.9955 10.8931C12.0488 10.9997 12.0754 11.1329 12.0754 11.2394C12.0754 11.4791 11.9689 11.7189 11.7824 11.8787C11.5959 12.0385 11.3562 12.1451 11.1165 12.1185C10.9833 12.1185 10.8767 12.1185 10.7435 12.0652C10.637 12.0119 10.5304 11.9586 10.4239 11.8787C10.344 11.7988 10.264 11.6922 10.2108 11.5857C10.1575 11.4791 10.1309 11.346 10.1309 11.2128C10.1309 11.0796 10.1575 10.973 10.2108 10.8398C10.264 10.7333 10.344 10.6267 10.4239 10.5468C10.5038 10.4669 10.637 10.387 10.7435 10.3604C10.8767 10.3604 11.0099 10.3604 11.1431 10.3604Z" fill="white"/>
<path d="M18.4433 29.381C18.2036 29.381 17.9639 29.2744 17.7774 29.1146C17.5909 28.9548 17.4844 28.715 17.4844 28.4753C17.4844 28.2356 17.5909 27.9958 17.7774 27.8093C17.9639 27.6495 18.2036 27.543 18.4433 27.543C18.5765 27.543 18.6831 27.5696 18.7896 27.5962C18.8962 27.6495 19.0027 27.7028 19.0827 27.7827C19.1626 27.8626 19.2425 27.9692 19.2958 28.0757C19.349 28.1823 19.3757 28.3155 19.3757 28.422C19.3757 28.5552 19.349 28.6618 19.2958 28.7683C19.2425 28.8749 19.1892 28.9814 19.0827 29.0613C19.0027 29.1412 18.8962 29.2212 18.763 29.2478C18.6831 29.381 18.5765 29.381 18.4433 29.381Z" fill="white"/>
<path d="M10.1582 35.8803C10.1848 35.6406 10.2914 35.4008 10.4512 35.241C10.6377 35.0812 10.8508 34.9746 11.0905 34.9746C11.2237 34.9746 11.3303 35.0012 11.4635 35.0279C11.57 35.0812 11.6766 35.1344 11.7831 35.2143C11.863 35.2943 11.9429 35.4008 11.9962 35.5074C12.0495 35.6139 12.0761 35.7471 12.0761 35.8803C12.0761 36.0135 12.0495 36.12 11.9962 36.2266C11.9429 36.3331 11.863 36.4397 11.7831 36.5196C11.7032 36.5995 11.5967 36.6794 11.4635 36.7061C11.3569 36.7594 11.2237 36.7593 11.0905 36.7593C10.8508 36.7593 10.611 36.6528 10.4512 36.493C10.2648 36.3598 10.1582 36.12 10.1582 35.8803Z" fill="white"/>
<path d="M25.7663 26.9029C25.5266 26.9029 25.2868 26.7964 25.127 26.6365C24.9405 26.4767 24.8606 26.237 24.834 25.9972C24.834 25.864 24.8606 25.7575 24.9139 25.6509C24.9672 25.5444 25.0471 25.4378 25.127 25.3579C25.2336 25.278 25.3401 25.2247 25.4467 25.1714C25.5532 25.1448 25.6864 25.1182 25.8196 25.1182C25.9528 25.1182 26.0593 25.1448 26.1659 25.1714C26.2724 25.2247 26.379 25.278 26.4589 25.3845C26.5388 25.4645 26.6187 25.571 26.6454 25.6776C26.6986 25.7841 26.6986 25.9173 26.6986 26.0239C26.672 26.2636 26.5655 26.5033 26.4056 26.6632C26.2458 26.823 26.0061 26.9029 25.7663 26.9029Z" fill="white"/>
<path d="M38.0474 37.452C38.2072 37.4786 38.3937 37.5585 38.5269 37.6651C38.6601 37.7716 38.7666 37.9315 38.7933 38.0913C38.8465 38.2511 38.8465 38.4376 38.7933 38.5974C38.74 38.7572 38.6601 38.9171 38.5269 39.0236C38.3937 39.1302 38.2339 39.2101 38.0474 39.2367C37.8876 39.2634 37.7011 39.2367 37.5413 39.1568C37.3814 39.0769 37.2483 38.9703 37.1683 38.8105C37.0884 38.6507 37.0352 38.4909 37.0352 38.3044C37.0352 38.1712 37.0884 38.0646 37.1417 37.9581C37.195 37.8515 37.2749 37.745 37.3814 37.6651C37.488 37.5852 37.5946 37.5319 37.7011 37.4786C37.8077 37.4253 37.9408 37.452 38.0474 37.452Z" fill="white"/>
<path d="M30.6413 17.1266C30.5081 17.1266 30.4015 17.0999 30.2684 17.0733C30.1618 17.02 30.0553 16.9667 29.9487 16.8868C29.8688 16.8069 29.7889 16.7004 29.7356 16.5938C29.6823 16.4873 29.6557 16.3541 29.6823 16.2209C29.6823 16.0877 29.709 15.9811 29.7622 15.8746C29.8155 15.768 29.8954 15.6615 29.9753 15.5816C30.0553 15.5016 30.1884 15.4484 30.295 15.3951C30.4015 15.3685 30.5347 15.3418 30.6679 15.3685C30.8011 15.3685 30.9077 15.3951 31.0142 15.4217C31.1208 15.475 31.2273 15.5283 31.3072 15.6082C31.3872 15.6881 31.4671 15.7947 31.5203 15.9012C31.5736 16.0078 31.6003 16.141 31.5736 16.2475C31.5736 16.3807 31.547 16.4873 31.4937 16.5938C31.4404 16.7004 31.3605 16.8069 31.2806 16.8868C31.2007 16.9667 31.0941 17.02 30.9609 17.0733C30.9077 17.1266 30.7745 17.1266 30.6413 17.1266Z" fill="white"/>
<path d="M37.9648 7.91113C38.2046 7.91113 38.4443 7.99105 38.6308 8.15087C38.8172 8.3107 38.9238 8.55044 38.9504 8.79018C38.9504 8.92337 38.9238 9.02993 38.8705 9.16312C38.8172 9.26967 38.7373 9.37622 38.6574 9.45613C38.5775 9.53604 38.4709 9.61596 38.3378 9.6426C38.2312 9.69588 38.098 9.69588 37.9648 9.69588C37.7251 9.69588 37.4853 9.61596 37.2989 9.4295C37.1124 9.26967 37.0059 9.02992 37.0059 8.79018C37.0059 8.65699 37.0325 8.55044 37.0858 8.44389C37.139 8.33734 37.1923 8.23079 37.2989 8.15087C37.3788 8.07096 37.4853 7.99105 37.5919 7.96441C37.7251 7.93777 37.8583 7.91113 37.9648 7.91113Z" fill="white"/>
<path d="M36.4994 11.2665C36.4994 11.4529 36.4461 11.6128 36.3662 11.7726C36.2596 11.9324 36.1264 12.039 35.9666 12.1189C35.8068 12.1988 35.6203 12.1988 35.4605 12.1722C35.274 12.1455 35.1142 12.0656 35.0076 11.9324C34.8744 11.7992 34.7945 11.6394 34.7679 11.4796C34.7412 11.2931 34.7412 11.1333 34.8212 10.9735C34.8744 10.8136 35.0076 10.6804 35.1408 10.5739C35.3006 10.4673 35.4605 10.4141 35.6469 10.4141C35.8867 10.4141 36.0998 10.494 36.2862 10.6804C36.3928 10.787 36.4994 11.0267 36.4994 11.2665Z" fill="white"/>
<path d="M33.0385 14.6512C32.7988 14.6512 32.5857 14.5447 32.3992 14.3848C32.2394 14.225 32.1328 13.9853 32.1328 13.7455C32.1328 13.5058 32.2127 13.2661 32.3992 13.1062C32.559 12.9464 32.7988 12.8398 33.0385 12.8398C33.2782 12.8398 33.4913 12.9464 33.6778 13.1062C33.8376 13.2661 33.9442 13.5058 33.9442 13.7455C33.9442 13.9853 33.8643 14.225 33.6778 14.3848C33.518 14.5447 33.2782 14.6512 33.0385 14.6512Z" fill="white"/>
<path d="M29.1747 18.672C29.1747 18.7786 29.1747 18.9118 29.1214 19.0183C29.0681 19.1249 29.0148 19.2314 28.9349 19.3113C28.855 19.3912 28.7485 19.4712 28.6419 19.5244C28.5354 19.5777 28.4288 19.6043 28.2956 19.6043C28.1624 19.6043 28.0559 19.5777 27.9493 19.5511C27.8428 19.4978 27.7362 19.4445 27.6563 19.3646C27.5764 19.2847 27.4965 19.1781 27.4432 19.0716C27.3899 18.965 27.3633 18.8318 27.3633 18.7253C27.3633 18.4856 27.4698 18.2724 27.6297 18.086C27.7895 17.9262 28.0292 17.8196 28.2423 17.793C28.4821 17.793 28.6952 17.8995 28.8816 18.0593C29.0681 18.2192 29.1747 18.4323 29.1747 18.672Z" fill="white"/>
<path d="M35.5437 36.7862C35.304 36.7595 35.0909 36.653 34.931 36.4665C34.7712 36.28 34.6913 36.0403 34.7179 35.8005C34.7446 35.5608 34.8511 35.3211 35.0376 35.1879C35.2241 35.028 35.4638 34.9481 35.7035 34.9748C35.9433 35.0014 36.1564 35.108 36.3162 35.2944C36.476 35.4809 36.556 35.7206 36.5293 35.9337C36.5027 36.1735 36.3961 36.3866 36.2363 36.5464C36.0232 36.7329 35.7835 36.8128 35.5437 36.7862Z" fill="white"/>
<path d="M25.7123 22.0813C25.4726 22.0813 25.2595 21.9748 25.073 21.8149C24.9132 21.6551 24.8066 21.4154 24.8066 21.1756C24.8066 21.0424 24.8333 20.9359 24.8599 20.8293C24.9132 20.7228 24.9665 20.6162 25.0464 20.5363C25.1263 20.4564 25.2328 20.3765 25.3394 20.3499C25.446 20.2966 25.5791 20.2699 25.6857 20.2966C25.8189 20.2966 25.9254 20.3232 26.032 20.3765C26.1385 20.4298 26.2451 20.4831 26.325 20.5896C26.4049 20.6695 26.4848 20.7761 26.5115 20.8826C26.5647 20.9892 26.5647 21.1224 26.5647 21.2289C26.5647 21.4687 26.4582 21.6818 26.2984 21.8416C26.1652 21.9748 25.9521 22.0813 25.7123 22.0813Z" fill="white"/>
<path d="M21.8219 21.1762C21.8219 21.4159 21.7153 21.629 21.5555 21.8155C21.3956 21.9753 21.1559 22.0819 20.9162 22.0819C20.6764 22.0819 20.4633 21.9753 20.3035 21.8155C20.1437 21.6557 20.0371 21.4159 20.0371 21.1762C20.0371 20.9365 20.117 20.7234 20.3035 20.5369C20.4633 20.3771 20.7031 20.2705 20.9162 20.2705C21.0227 20.2705 21.1559 20.2971 21.2625 20.3504C21.369 20.4037 21.4756 20.457 21.5555 20.5369C21.6354 20.6168 21.7153 20.7234 21.7419 20.8299C21.8219 20.9365 21.8219 21.0696 21.8219 21.1762Z" fill="white"/>
<path d="M29.1773 28.5026C29.1773 28.6358 29.1507 28.7424 29.1241 28.8489C29.0708 28.9555 29.0175 29.062 28.911 29.142C28.831 29.2219 28.7245 29.3018 28.6179 29.3284C28.5114 29.3817 28.3782 29.3817 28.2717 29.3817C28.1385 29.3817 28.0319 29.3551 27.9254 29.3018C27.8188 29.2485 27.7123 29.1686 27.6323 29.0887C27.5524 29.0088 27.4991 28.9022 27.4459 28.769C27.4192 28.6625 27.3926 28.5293 27.4192 28.4227C27.4192 28.183 27.5258 27.9699 27.7123 27.8101C27.8987 27.6502 28.1118 27.5703 28.3516 27.5703C28.5913 27.5703 28.8044 27.6769 28.9642 27.8633C29.0974 28.0232 29.1773 28.2629 29.1773 28.5026Z" fill="white"/>
<path d="M20.9449 25.0918C21.1847 25.0918 21.3978 25.1717 21.5842 25.3582C21.7441 25.518 21.8506 25.7577 21.8506 25.9708C21.8506 26.2106 21.7707 26.4237 21.6109 26.6102C21.451 26.77 21.2379 26.8765 20.9982 26.9032C20.865 26.9032 20.7585 26.8765 20.6519 26.8499C20.5453 26.7966 20.4388 26.7433 20.3589 26.6634C20.279 26.5835 20.1991 26.477 20.1724 26.3704C20.1191 26.2639 20.1191 26.1307 20.1191 26.0241C20.1191 25.9176 20.1458 25.7844 20.1724 25.6778C20.2257 25.5713 20.279 25.4647 20.3589 25.3848C20.4388 25.3049 20.5453 25.225 20.6519 25.1983C20.7052 25.1184 20.8384 25.0918 20.9449 25.0918Z" fill="white"/>
<path d="M33.0662 34.3097C32.8797 34.3097 32.7199 34.2565 32.56 34.1765C32.4002 34.07 32.2937 33.9368 32.2137 33.777C32.1338 33.6172 32.1338 33.4307 32.1605 33.2442C32.1871 33.0578 32.267 32.8979 32.4002 32.7647C32.5334 32.6315 32.6932 32.5516 32.8531 32.4984C33.0395 32.4717 33.1993 32.4717 33.3858 32.5516C33.5456 32.6315 33.7055 32.7381 33.7854 32.8713C33.8919 33.0311 33.9452 33.1909 33.9452 33.3774C33.9452 33.6172 33.8653 33.8569 33.6788 34.0167C33.519 34.2032 33.3059 34.3097 33.0662 34.3097Z" fill="white"/>
<path d="M14.4996 33.4824C14.4996 33.589 14.473 33.7221 14.4197 33.8287C14.3664 33.9352 14.3131 34.0152 14.2066 34.0951C14.1267 34.175 14.0201 34.2283 13.9136 34.2815C13.807 34.3082 13.7005 34.3348 13.5673 34.3348C13.3275 34.3082 13.1144 34.2016 12.9546 34.0418C12.7948 33.8553 12.7148 33.6422 12.7148 33.4025C12.7148 33.2693 12.7415 33.1627 12.7948 33.0562C12.848 32.9496 12.9279 32.8431 13.0079 32.7632C13.0878 32.6833 13.1943 32.63 13.3275 32.5767C13.4341 32.5501 13.5673 32.5234 13.6738 32.5234C13.7804 32.5234 13.9136 32.5767 14.0201 32.63C14.1267 32.6833 14.2066 32.7632 14.2865 32.8431C14.3664 32.923 14.4197 33.0296 14.4463 33.1361C14.4996 33.2427 14.5262 33.3759 14.4996 33.4824Z" fill="white"/>
<path d="M13.5926 14.6512C13.3529 14.6512 13.1398 14.5447 12.98 14.3582C12.8201 14.1984 12.7402 13.9586 12.7402 13.7189C12.7402 13.5857 12.7669 13.4792 12.7935 13.3726C12.8468 13.2661 12.9001 13.1595 12.98 13.0796C13.0599 12.9997 13.1664 12.9198 13.273 12.8931C13.3795 12.8398 13.5127 12.8398 13.6193 12.8398C13.7258 12.8398 13.859 12.8665 13.9656 12.9198C14.0721 12.973 14.1787 13.0529 14.2586 13.1329C14.3385 13.2128 14.3918 13.3193 14.4451 13.4525C14.4717 13.5591 14.4983 13.6923 14.4983 13.7988C14.4983 14.0386 14.3918 14.2517 14.2053 14.4115C14.0455 14.5713 13.8324 14.6512 13.5926 14.6512Z" fill="white"/>
<path d="M16.0944 30.0729C16.201 30.0729 16.3342 30.0996 16.4407 30.1529C16.5473 30.2061 16.6538 30.2594 16.7337 30.3393C16.8137 30.4192 16.8669 30.5258 16.9202 30.6323C16.9735 30.7389 16.9735 30.8455 16.9735 30.9786C16.9735 31.2184 16.8669 31.4315 16.6805 31.5913C16.5206 31.7511 16.2809 31.8311 16.0412 31.8311C15.8014 31.8311 15.5883 31.7245 15.4285 31.5647C15.2687 31.4048 15.1621 31.1651 15.1621 30.952C15.1621 30.8188 15.1887 30.7123 15.242 30.6057C15.2953 30.4992 15.3486 30.3926 15.4551 30.3127C15.535 30.2328 15.6416 30.1795 15.7748 30.1262C15.8547 30.073 15.9612 30.0463 16.0944 30.0729Z" fill="white"/>
<path d="M30.6967 30.0723C30.8299 30.0723 30.9364 30.0723 31.043 30.1255C31.1496 30.1788 31.2561 30.2321 31.3627 30.312C31.4426 30.3919 31.5225 30.4985 31.5758 30.605C31.629 30.7116 31.6557 30.8448 31.629 30.9513C31.629 31.1911 31.5225 31.4042 31.336 31.564C31.1762 31.7238 30.9364 31.8037 30.6967 31.8037C30.457 31.8037 30.2439 31.7238 30.0574 31.5374C29.8976 31.3775 29.791 31.1378 29.791 30.898C29.791 30.7915 29.8177 30.6583 29.8443 30.5518C29.8976 30.4452 29.9508 30.3386 30.0308 30.2587C30.1107 30.1788 30.2172 30.0989 30.3238 30.0723C30.457 30.0989 30.5902 30.0723 30.6967 30.0723Z" fill="white"/>
<path d="M8.71748 9.69631C8.47774 9.69631 8.26464 9.61639 8.07818 9.45657C7.91835 9.29674 7.81179 9.08364 7.78516 8.8439C7.78516 8.71071 7.8118 8.60415 7.86507 8.4976C7.91835 8.39105 7.97162 8.2845 8.07818 8.20458C8.15809 8.12467 8.26464 8.04476 8.37119 8.01812C8.47775 7.96484 8.61093 7.96484 8.71748 7.96484C8.82404 7.96484 8.95723 7.99148 9.06378 8.01812C9.17033 8.04476 9.27688 8.12467 9.3568 8.20458C9.43671 8.2845 9.51663 8.39105 9.54326 8.4976C9.59654 8.60415 9.59654 8.71071 9.59654 8.8439C9.59654 8.95045 9.5699 9.08364 9.54326 9.19019C9.48999 9.29674 9.43671 9.40329 9.3568 9.48321C9.27688 9.56312 9.17033 9.64303 9.06378 9.66967C8.95723 9.66967 8.85067 9.69631 8.71748 9.69631Z" fill="white"/>
<path d="M8.71889 37.4775C8.82544 37.4775 8.95864 37.4775 9.06519 37.5308C9.17174 37.5841 9.27829 37.6374 9.35821 37.7173C9.43812 37.7972 9.51804 37.9037 9.57131 38.0103C9.62459 38.1169 9.65122 38.2234 9.65122 38.3566C9.65122 38.5963 9.54467 38.8094 9.38484 38.9693C9.22501 39.1291 8.98528 39.2356 8.77217 39.2356C8.53243 39.2356 8.31932 39.1557 8.13286 38.9959C7.97303 38.8361 7.86648 38.623 7.83984 38.3832C7.83984 38.2767 7.86648 38.1435 7.89312 38.0369C7.94639 37.9304 7.99967 37.8238 8.07958 37.7439C8.1595 37.664 8.26605 37.5841 8.3726 37.5574C8.47915 37.5042 8.5857 37.4775 8.71889 37.4775Z" fill="white"/>
<path d="M23.3933 24.5331C23.2867 24.5331 23.1535 24.5331 23.047 24.4798C22.9404 24.4531 22.8339 24.3732 22.754 24.2933C22.674 24.2134 22.5941 24.1069 22.5409 24.0003C22.4876 23.8937 22.4609 23.7872 22.4609 23.654C22.4609 23.5475 22.4876 23.4143 22.5142 23.3077C22.5675 23.2012 22.6208 23.0946 22.7007 23.0147C22.7806 22.9348 22.8871 22.8549 22.9937 22.8016C23.1002 22.7483 23.2068 22.7217 23.34 22.7217C23.4732 22.7217 23.5797 22.7217 23.6863 22.775C23.7928 22.8282 23.8994 22.8815 24.0059 22.9614C24.0859 23.0413 24.1658 23.1479 24.219 23.2544C24.2723 23.361 24.299 23.4942 24.299 23.6007C24.299 23.7073 24.2723 23.8405 24.2457 23.947C24.1924 24.0536 24.1391 24.1601 24.0592 24.24C23.9793 24.32 23.8727 24.3999 23.7662 24.4265C23.633 24.5064 23.5265 24.5331 23.3933 24.5331Z" fill="white"/>
<path d="M16.0412 17.1009C15.9346 17.1009 15.8014 17.0742 15.6949 17.0476C15.5883 16.9943 15.4818 16.9411 15.4018 16.8611C15.3219 16.7812 15.242 16.6747 15.2154 16.5681C15.1621 16.4616 15.1621 16.3284 15.1621 16.2218C15.1621 16.0886 15.1887 15.9821 15.242 15.8755C15.2953 15.769 15.3486 15.6624 15.4551 15.5825C15.535 15.5026 15.6416 15.4227 15.7481 15.3961C15.8547 15.3428 15.9879 15.3428 16.0944 15.3428C16.201 15.3428 16.3342 15.3694 16.4407 15.4227C16.5473 15.476 16.6538 15.5292 16.7337 15.6358C16.8137 15.7157 16.8669 15.8223 16.9202 15.9288C16.9735 16.0354 16.9735 16.1686 16.9735 16.2751C16.9735 16.3817 16.9469 16.5148 16.9202 16.6214C16.8669 16.7279 16.8137 16.8345 16.7071 16.9144C16.6272 16.9943 16.5206 17.0476 16.4141 17.1009C16.2543 17.1009 16.1477 17.1275 16.0412 17.1009Z" fill="white"/>
</svg>
